<svg id="Capa_1" data-name="Capa 1" xmlns="http://www.w3.org/2000/svg" viewBox="0 0 692.5 533.5"><defs><style>.cls-1{fill:#36a9e1;}</style></defs><path class="cls-1" d="M714.35,738.74c6.63,7.92,14,11.15,23.38,9.42,27.82-5.11,55.56-10.79,83.5-15.14a871.86,871.86,0,0,1,129.93-9.89c20.91-.11,41.82,0,62.74,0h7.7V313.8a46.69,46.69,0,0,1,.11-7.2c1-6.23,4.74-9.86,11.11-10.26a11.33,11.33,0,0,1,11.88,10.23,51.82,51.82,0,0,1,.11,6.48v416.7c0,13.25-3.31,16.43-16.55,16.57-40.61.43-81.34-.82-121.8,1.94C865.12,751.07,824,757.59,782.88,763c-13.27,1.75-26.35,5.1-39.48,7.86-16.33,3.44-30.34-1-42.43-12.18-.67-.62-1.47-1.11-2.56-1.93C688.2,767,676.05,772.92,661.6,771.92c-7.83-.54-15.6-2.57-23.32-4.25C569,752.54,498.87,746,428,746.29q-30.64.11-61.3,0c-10.33,0-14.36-4-14.36-14.37q0-210.51,0-421c0-9.27,4-14.37,11.23-14.59,7.58-.22,12,5.06,12,14.61q0,201.51,0,403v9.17c3.5,0,6.32,0,9.14,0,37.48.52,75,0,112.44,1.83,52.58,2.53,104.58,10.24,155.91,22.06,11.29,2.61,21.25,2.33,30.49-9.27-16.42-7.47-31.68-15.34-47.63-21.45-29.41-11.29-60.15-16.13-91.66-16.12q-65.26,0-130.52,0c-11.39,0-15.22-3.76-15.22-15q0-215.92,0-431.84c0-10.85,3.88-14.72,14.72-14.73,61.54,0,123.07-.21,184.61.06,42.91.19,75.38,19.32,97.81,55.75l2.5,4.06c6-8,11.07-16.12,17.43-23.13,21.77-24,49.12-36.52,81.56-36.66,62.26-.28,124.52-.09,186.77-.08,10.82,0,14.72,3.91,14.72,14.74q0,152.85.06,305.68c0,5.41-.85,10.67-6.28,12.55-3.43,1.18-8.82,1.45-11.26-.48-3-2.4-5.36-7.46-5.47-11.43-.54-19.45-.25-38.93-.25-58.39v-239c-2.51-.17-4.59-.43-6.66-.43q-85.1,0-170.19,0c-41.93.07-77,28.15-86.28,69-1.31,5.81-1.61,11.88-2.08,17.84-.57,7.31-5,12.3-11.38,12.47-6.65.19-11.49-5-11.88-12.64-2.57-51.15-39.73-86.69-90.73-86.71q-82.93,0-165.86,0h-8.22V677h7.47q58,0,116.1,0c47.49-.1,92.16,11.1,134.2,33.07,2,1.07,4.15,2,7.05,3.38V406.28c0-2.16-.12-4.33,0-6.48.51-6.73,5.33-11.29,11.7-11.21s11,4.68,11.43,11.5c.15,2.15,0,4.32,0,6.49V713.3c2.42-1.1,4.28-1.83,6-2.75,42.4-22.34,87.51-33.72,135.5-33.62,40.86.09,81.71,0,123.72,0v-7.81q0-29.21,0-58.4c0-9.26,4-14.34,11.31-14.51,7.59-.18,11.88,5.06,11.89,14.68q0,37.49,0,75c0,10.26-4.09,14.26-14.49,14.27-46.15,0-92.31-.49-138.45.2C798.92,701.05,755.43,714.05,714.35,738.74Z" transform="translate(-352.36 -238.53)"/><path class="cls-1" d="M538,319.36c21.4,0,42.79-.21,64.19.07,20.64.28,39.67,6.37,57.05,17.49,6.58,4.22,8.49,10.73,5.12,16.57-3.46,6-10.48,7.5-17.51,3.09-16.4-10.31-34.26-14.24-53.49-14.11-41.1.28-82.21.11-123.31.07-8,0-12.79-3.57-13.74-9.88-1.13-7.53,4.41-13.25,13.18-13.28C492.31,319.3,515.15,319.35,538,319.36Z" transform="translate(-352.36 -238.53)"/><path class="cls-1" d="M859.18,319.35q33.52,0,67.06,0c9.61,0,14.88,4.31,14.69,11.87-.17,7.26-5.31,11.31-14.53,11.32-41.59,0-83.17.12-124.76,0-18.23-.07-35.13,4.06-50.7,13.7-7.56,4.69-14.53,3.47-18.12-2.74s-1.32-12.56,6.35-17.32a108.44,108.44,0,0,1,58-16.78C817.83,319.31,838.5,319.36,859.18,319.35Z" transform="translate(-352.36 -238.53)"/><path class="cls-1" d="M538,377c21.4,0,42.79-.22,64.19.07,20.64.28,39.67,6.36,57.05,17.49,6.58,4.22,8.49,10.73,5.13,16.57-3.47,6-10.49,7.5-17.52,3.08-16.4-10.3-34.26-14.23-53.49-14.1-41.1.28-82.21.1-123.31.07-8,0-12.79-3.57-13.74-9.88-1.13-7.53,4.41-13.25,13.18-13.28C492.31,377,515.15,377,538,377Z" transform="translate(-352.36 -238.53)"/><path class="cls-1" d="M859.18,377q33.52,0,67.06,0c9.61,0,14.88,4.31,14.69,11.87-.17,7.25-5.31,11.31-14.53,11.32-41.59,0-83.18.12-124.76-.05-18.23-.07-35.13,4.07-50.7,13.71-7.56,4.69-14.53,3.46-18.12-2.74s-1.32-12.56,6.35-17.32a108.44,108.44,0,0,1,58-16.78C817.83,377,838.5,377,859.18,377Z" transform="translate(-352.36 -238.53)"/><path class="cls-1" d="M538.7,434.72c21.16,0,42.31-.22,63.46.07,20.65.27,39.68,6.36,57.05,17.49,6.59,4.21,8.5,10.72,5.14,16.56-3.47,6-10.49,7.51-17.52,3.09-16.4-10.3-34.26-14.24-53.48-14.1-41.11.28-82.21.1-123.32.07-8,0-12.79-3.57-13.74-9.88-1.13-7.53,4.41-13.26,13.18-13.28C492.55,434.66,515.62,434.71,538.7,434.72Z" transform="translate(-352.36 -238.53)"/><path class="cls-1" d="M859.82,457.91c-19.23,0-38.46.17-57.69-.05-18.48-.2-35.68,3.91-51.35,13.88-5.67,3.61-11.3,4.27-16.39-.81-5.33-5.33-3.9-13.82,3.14-18.4,16.65-10.85,35-17.39,54.81-17.62,45.19-.5,90.39-.21,135.58-.17,8,0,12.89,4.5,13,11.36.13,7.11-5,11.76-13.32,11.79C905,458,882.41,457.91,859.82,457.91Z" transform="translate(-352.36 -238.53)"/><path class="cls-1" d="M538,492.39c21.4,0,42.79-.22,64.19.08,20.64.28,39.67,6.38,57,17.52,6.57,4.22,8.45,10.75,5.05,16.58s-10.33,7.52-16.91,3.35c-17.25-10.94-36.09-14.64-56.29-14.45-40.38.39-80.77.14-121.15.1-8,0-12.77-3.61-13.68-9.93-1.09-7.54,4.44-13.2,13.24-13.23C492.37,492.34,515.21,492.39,538,492.39Z" transform="translate(-352.36 -238.53)"/><path class="cls-1" d="M859.35,492.39q33.54,0,67.07,0c9.23,0,14.35,4.06,14.51,11.33.17,7.59-5,11.86-14.71,11.86-41.34,0-82.69.14-124-.05-18.48-.09-35.63,4-51.39,13.81-7.25,4.52-14,3.42-17.71-2.37-3.91-6.08-1.8-12.86,5.61-17.51a108.22,108.22,0,0,1,57.91-17C817.52,492.31,838.44,492.39,859.35,492.39Z" transform="translate(-352.36 -238.53)"/><path class="cls-1" d="M538.48,550.07c21.16,0,42.31-.2,63.46.06,20.65.26,39.69,6.29,57.09,17.38,6.91,4.41,8.83,11.22,5.07,17.12-3.54,5.58-10.39,7-17.08,2.76-16.61-10.46-34.7-14.37-54.17-14.22-39.43.32-78.85.1-118.27.1-1.45,0-2.89,0-4.33,0-9-.1-14.16-4.48-14-11.82.14-7.1,5.15-11.34,13.74-11.36Q504.23,550,538.48,550.07Z" transform="translate(-352.36 -238.53)"/><path class="cls-1" d="M859.1,550.06q33.18,0,66.35,0c10.35,0,15.63,4,15.48,11.8-.13,7.46-5.33,11.39-15.18,11.39-41.35,0-82.69.12-124,0-18.23-.08-35.14,4-50.71,13.67-7.58,4.69-14.53,3.51-18.15-2.65s-1.38-12.59,6.26-17.34a108.39,108.39,0,0,1,58-16.82C817.76,550,838.43,550.07,859.1,550.06Z" transform="translate(-352.36 -238.53)"/><path class="cls-1" d="M538.54,607.75c20.88,0,41.76-.13,62.64,0a107.24,107.24,0,0,1,57.13,16.94c7.49,4.71,9.65,11.3,5.88,17.43s-10.56,7-18.23,2.28C630.62,635,614,630.84,596,630.9c-42,.14-84,0-126,.1-6.86,0-11.79-2.42-13.55-9.24-2-7.61,3.95-14,12.95-14C492.46,607.69,515.5,607.74,538.54,607.75Z" transform="translate(-352.36 -238.53)"/><path class="cls-1" d="M859.53,607.74q33.53,0,67.07,0c9.14,0,14.28,4.19,14.33,11.5s-5.13,11.68-14.16,11.68c-41.35,0-82.7.17-124,0-18.72-.1-36.11,3.91-52.08,13.91-7.16,4.48-14,3.24-17.65-2.61-3.82-6.15-1.66-12.76,5.85-17.45a108.29,108.29,0,0,1,57.94-17C817.7,607.68,838.62,607.75,859.53,607.74Z" transform="translate(-352.36 -238.53)"/></svg>